<mxfile host="Electron" agent="Mozilla/5.0 (Windows NT 10.0; Win64; x64) AppleWebKit/537.36 (KHTML, like Gecko) draw.io/24.7.17 Chrome/128.0.6613.36 Electron/32.0.1 Safari/537.36" version="24.7.17">
  <diagram name="Page-1" id="e7e014a7-5840-1c2e-5031-d8a46d1fe8dd">
    <mxGraphModel dx="1152" dy="732" grid="1" gridSize="10" guides="1" tooltips="1" connect="1" arrows="1" fold="1" page="1" pageScale="1" pageWidth="1169" pageHeight="826" background="none" math="0" shadow="0">
      <root>
        <mxCell id="0" />
        <mxCell id="1" parent="0" />
        <mxCell id="3" value="SYSTEM" style="swimlane;whiteSpace=wrap;startSize=12;" parent="1" vertex="1">
          <mxGeometry x="444.5" y="128" width="280" height="570" as="geometry" />
        </mxCell>
        <mxCell id="O9mmwDviMF0tea1kizCk-47" value="Course Registration" style="ellipse;whiteSpace=wrap;html=1;fillColor=#60a917;fontColor=#ffffff;strokeColor=#2D7600;" vertex="1" parent="3">
          <mxGeometry x="70" y="32" width="140" height="70" as="geometry" />
        </mxCell>
        <mxCell id="O9mmwDviMF0tea1kizCk-49" value="Ai adviser" style="ellipse;whiteSpace=wrap;html=1;fillColor=#1ba1e2;fontColor=#ffffff;strokeColor=#006EAF;" vertex="1" parent="3">
          <mxGeometry x="70.5" y="262" width="140" height="70" as="geometry" />
        </mxCell>
        <mxCell id="O9mmwDviMF0tea1kizCk-48" value="Event Calendar" style="ellipse;whiteSpace=wrap;html=1;fillColor=#6a00ff;fontColor=#ffffff;strokeColor=#3700CC;" vertex="1" parent="3">
          <mxGeometry x="70.5" y="142" width="140" height="70" as="geometry" />
        </mxCell>
        <mxCell id="O9mmwDviMF0tea1kizCk-50" value="" style="endArrow=open;endFill=1;endSize=12;html=1;rounded=0;entryX=0.5;entryY=0;entryDx=0;entryDy=0;exitX=0.5;exitY=1;exitDx=0;exitDy=0;" edge="1" parent="3" source="O9mmwDviMF0tea1kizCk-48" target="O9mmwDviMF0tea1kizCk-49">
          <mxGeometry width="160" relative="1" as="geometry">
            <mxPoint x="5.5" y="232" as="sourcePoint" />
            <mxPoint x="165.5" y="232" as="targetPoint" />
          </mxGeometry>
        </mxCell>
        <mxCell id="O9mmwDviMF0tea1kizCk-51" value="" style="endArrow=open;endFill=1;endSize=12;html=1;rounded=0;exitX=0.5;exitY=1;exitDx=0;exitDy=0;entryX=0.5;entryY=0;entryDx=0;entryDy=0;" edge="1" parent="3" source="O9mmwDviMF0tea1kizCk-47" target="O9mmwDviMF0tea1kizCk-48">
          <mxGeometry width="160" relative="1" as="geometry">
            <mxPoint x="135.5" y="132" as="sourcePoint" />
            <mxPoint x="135.5" y="152" as="targetPoint" />
            <Array as="points" />
          </mxGeometry>
        </mxCell>
        <mxCell id="O9mmwDviMF0tea1kizCk-52" value="" style="shape=line;html=1;strokeWidth=6;strokeColor=#ff0000;rotation=90;" vertex="1" parent="3">
          <mxGeometry x="-124.5" y="182" width="294.5" height="10" as="geometry" />
        </mxCell>
        <mxCell id="O9mmwDviMF0tea1kizCk-57" value="" style="endArrow=open;endFill=1;endSize=12;html=1;rounded=0;entryX=0;entryY=0.571;entryDx=0;entryDy=0;entryPerimeter=0;exitX=0.894;exitY=0.336;exitDx=0;exitDy=0;exitPerimeter=0;" edge="1" parent="3" source="O9mmwDviMF0tea1kizCk-52" target="O9mmwDviMF0tea1kizCk-49">
          <mxGeometry width="160" relative="1" as="geometry">
            <mxPoint x="-89.5" y="296.44" as="sourcePoint" />
            <mxPoint x="70.5" y="296.44" as="targetPoint" />
          </mxGeometry>
        </mxCell>
        <mxCell id="O9mmwDviMF0tea1kizCk-58" value="" style="endArrow=open;endFill=1;endSize=12;html=1;rounded=0;entryX=0;entryY=0.5;entryDx=0;entryDy=0;exitX=0.479;exitY=0.336;exitDx=0;exitDy=0;exitPerimeter=0;" edge="1" parent="3" source="O9mmwDviMF0tea1kizCk-52" target="O9mmwDviMF0tea1kizCk-48">
          <mxGeometry width="160" relative="1" as="geometry">
            <mxPoint x="25.5" y="182" as="sourcePoint" />
            <mxPoint x="75.5" y="182" as="targetPoint" />
          </mxGeometry>
        </mxCell>
        <mxCell id="O9mmwDviMF0tea1kizCk-59" value="" style="endArrow=open;endFill=1;endSize=12;html=1;rounded=0;entryX=0;entryY=0.5;entryDx=0;entryDy=0;exitX=0.102;exitY=0.114;exitDx=0;exitDy=0;exitPerimeter=0;" edge="1" parent="3" source="O9mmwDviMF0tea1kizCk-52" target="O9mmwDviMF0tea1kizCk-47">
          <mxGeometry width="160" relative="1" as="geometry">
            <mxPoint x="-89.5" y="66.44" as="sourcePoint" />
            <mxPoint x="70.5" y="66.44" as="targetPoint" />
          </mxGeometry>
        </mxCell>
        <mxCell id="O9mmwDviMF0tea1kizCk-41" value="Advisor" style="shape=umlActor;verticalLabelPosition=bottom;verticalAlign=top;html=1;outlineConnect=0;" vertex="1" parent="1">
          <mxGeometry x="800" y="400" width="30" height="60" as="geometry" />
        </mxCell>
        <mxCell id="O9mmwDviMF0tea1kizCk-42" value="sTUDENT" style="shape=umlActor;verticalLabelPosition=bottom;verticalAlign=top;html=1;outlineConnect=0;" vertex="1" parent="1">
          <mxGeometry x="290" y="180" width="30" height="60" as="geometry" />
        </mxCell>
        <mxCell id="O9mmwDviMF0tea1kizCk-54" value="" style="ellipse;html=1;shape=startState;fillColor=#000000;strokeColor=#ff0000;" vertex="1" parent="1">
          <mxGeometry x="370" y="180" width="30" height="30" as="geometry" />
        </mxCell>
        <mxCell id="O9mmwDviMF0tea1kizCk-55" value="" style="edgeStyle=orthogonalEdgeStyle;html=1;verticalAlign=bottom;endArrow=open;endSize=8;strokeColor=#ff0000;rounded=0;entryX=0.555;entryY=0.892;entryDx=0;entryDy=0;entryPerimeter=0;" edge="1" source="O9mmwDviMF0tea1kizCk-54" parent="1" target="O9mmwDviMF0tea1kizCk-52">
          <mxGeometry relative="1" as="geometry">
            <mxPoint x="385" y="340" as="targetPoint" />
            <Array as="points">
              <mxPoint x="385" y="280" />
              <mxPoint x="386" y="331" />
            </Array>
          </mxGeometry>
        </mxCell>
        <mxCell id="O9mmwDviMF0tea1kizCk-60" value="" style="endArrow=open;endFill=1;endSize=12;html=1;rounded=0;entryX=0.5;entryY=0.5;entryDx=0;entryDy=0;entryPerimeter=0;exitX=1;exitY=0.5;exitDx=0;exitDy=0;" edge="1" parent="1" source="O9mmwDviMF0tea1kizCk-49" target="O9mmwDviMF0tea1kizCk-41">
          <mxGeometry width="160" relative="1" as="geometry">
            <mxPoint x="620" y="500" as="sourcePoint" />
            <mxPoint x="780" y="500" as="targetPoint" />
          </mxGeometry>
        </mxCell>
        <mxCell id="O9mmwDviMF0tea1kizCk-61" value="Admin" style="shape=umlActor;verticalLabelPosition=bottom;verticalAlign=top;html=1;" vertex="1" parent="1">
          <mxGeometry x="820" y="160" width="30" height="50" as="geometry" />
        </mxCell>
        <mxCell id="O9mmwDviMF0tea1kizCk-65" value="" style="endArrow=open;endFill=1;endSize=12;html=1;rounded=0;entryX=0.5;entryY=0.5;entryDx=0;entryDy=0;entryPerimeter=0;exitX=1;exitY=0.5;exitDx=0;exitDy=0;" edge="1" parent="1" source="O9mmwDviMF0tea1kizCk-48" target="O9mmwDviMF0tea1kizCk-61">
          <mxGeometry width="160" relative="1" as="geometry">
            <mxPoint x="650" y="310" as="sourcePoint" />
            <mxPoint x="810" y="310" as="targetPoint" />
            <Array as="points">
              <mxPoint x="750" y="310" />
            </Array>
          </mxGeometry>
        </mxCell>
        <mxCell id="O9mmwDviMF0tea1kizCk-66" value="" style="endArrow=open;endFill=1;endSize=12;html=1;rounded=0;exitX=1;exitY=0.5;exitDx=0;exitDy=0;" edge="1" parent="1" source="O9mmwDviMF0tea1kizCk-47">
          <mxGeometry width="160" relative="1" as="geometry">
            <mxPoint x="660" y="194.44" as="sourcePoint" />
            <mxPoint x="820" y="190" as="targetPoint" />
          </mxGeometry>
        </mxCell>
        <mxCell id="O9mmwDviMF0tea1kizCk-67" style="edgeStyle=orthogonalEdgeStyle;rounded=0;orthogonalLoop=1;jettySize=auto;html=1;exitX=0.25;exitY=0.1;exitDx=0;exitDy=0;exitPerimeter=0;entryX=0.444;entryY=0.289;entryDx=0;entryDy=0;entryPerimeter=0;" edge="1" parent="1" source="O9mmwDviMF0tea1kizCk-61" target="O9mmwDviMF0tea1kizCk-61">
          <mxGeometry relative="1" as="geometry" />
        </mxCell>
      </root>
    </mxGraphModel>
  </diagram>
</mxfile>
